<svg width="1175" height="490" viewBox="0 0 1175 490" xmlns="http://www.w3.org/2000/svg" style="background:#06c"><title>cf-dotnetcore</title><g fill="none" fill-rule="evenodd"><g transform="translate(394 182)"><circle fill="#FFF" cx="63" cy="63" r="63"/><g fill="#06C"><path d="M52.644 73.284s1.828-6.925-6.111-15.852l-.265-.278a22.011 22.011 0 0 1-5.187-14.163c0-12.133 9.884-22.008 22.035-22.008h.512c12.151 0 22.034 9.875 22.034 22.008a21.983 21.983 0 0 1-5.182 14.158c-.04.045-.13.14-.265.274-7.045 7.059-6.116 15.861-6.116 15.861 12.87-4.437 21.568-16.539 21.64-30.113.094-16.97-13.606-31.438-30.535-32.25-.211-.01-.422-.014-.629-.014-.256 0-1.208.018-1.203.018-.027 0-.948-.018-1.199-.018-.211 0-.422.004-.629.014-16.933.812-30.629 15.28-30.539 32.25.076 13.574 8.769 25.676 21.639 30.113M94.23 98.821a9.919 9.919 0 0 1 1.926-.561 12.219 12.219 0 0 1 2.228-.27s-.036-.251-.086-.624c-.022-.368-.197-.858-.364-1.342-.085-.238-.17-.476-.247-.697-.098-.22-.224-.422-.314-.597l-.314-.57c-.804-.13-1.563-.31-2.299-.521a17.912 17.912 0 0 1-2.075-.714c-1.176-.516-2.281-1.096-2.865-1.742-.705-.615-.835-1.231-.812-1.787.04-.274.166-.539.381-.786a2.45 2.45 0 0 1 .835-.651s-.282-.157-.696-.391c-.211-.112-.44-.247-.709-.386-.283-.135-.579-.279-.876-.418-.583-.278-1.167-.557-1.657-.741l-.776-.314c-.566.076-1.181.117-1.806.126a20.4 20.4 0 0 1-1.948-.054c-1.262-.108-2.547-.283-3.656-.611a9.11 9.11 0 0 1-1.491-.516c-.426-.189-.808-.377-1.113-.588-.584-.427-.984-.858-.979-1.294 0 0-.355-.058-.885-.148-.548-.085-1.715-.242-2.456-.341-.013.126-.094.242-.121.449l-.189.907c-.386 1.814.665 3.655 2.447 4.172 4.365 1.27 7.666 3.363 8.618 5.931 1.926 5.196-6.166 10.275-18.47 10.275-12.308 0-20.4-5.079-18.478-10.275.93-2.505 4.1-4.557 8.308-5.837 1.863-.566 2.968-2.483 2.568-4.387l-.26-1.235c-.49.058-1.06.13-1.644.202-.732.081-1.428.211-1.962.296a92.33 92.33 0 0 0-.894.148c.036.423-.265.899-.84 1.307-.3.207-.633.422-1.041.615-.409.198-.912.364-1.437.539-.543.171-1.15.297-1.756.404-.597.117-1.235.202-1.89.256-1.307.104-2.618.131-3.808-.018l-.216.086c-.13.058-.341.134-.552.238-.436.206-1.024.489-1.617.772-.584.292-1.104.606-1.526.84-.212.116-.387.215-.508.283a7.675 7.675 0 0 1-.175.116c.822.382 1.28.898 1.37 1.446.206.58-.077 1.181-.611 1.837-.31.332-.727.647-1.154.952-.454.31-1.02.602-1.653.88-1.185.561-2.721 1.055-4.369 1.352 0 0-.143.233-.251.583-.126.355-.292.836-.463 1.325-.072.485-.139.983-.193 1.365-.072.386-.036.638-.036.638 1.702.018 3.215.305 4.347.759 1.316.435 2.11 1.086 2.726 1.881.485.858.678 1.756.247 2.793-.301 1.011-1.128 2.138-2.475 3.162l.207.179c.148.108.364.261.624.445.535.368 1.208.889 1.998 1.36.835.458 1.684.921 2.326 1.275.319.18.643.292.845.387.211.094.332.143.332.143 1.899-.812 3.938-1.23 5.977-1.446a17.572 17.572 0 0 1 2.977-.071c.974.049 1.966.125 2.896.345.921.243 1.819.472 2.605.822.799.346 1.508.799 2.182 1.235 1.343.916 2.375 2.209 2.82 3.57l1.729.067c1.041.027 2.429.122 3.812.05 1.383-.045 2.771-.068 3.799-.135 1.015-.099 1.693-.162 1.693-.162.144-.709.458-1.378.889-1.984.211-.297.454-.58.723-.845.26-.274.534-.552.84-.799a8.84 8.84 0 0 1 2.065-1.262c.755-.355 1.563-.687 2.497-.898.952-.188 1.846-.377 2.815-.444.957-.077 1.999-.032 2.964.009 1.971.107 4.158.561 6.058 1.279l1.051-.583c.601-.36 1.468-.786 2.132-1.316.678-.503 1.392-.979 1.824-1.374.422-.395.696-.656.696-.656-1.415-.974-2.228-2.021-2.748-3.053-.243-.499-.31-.966-.324-1.428a2.049 2.049 0 0 1 .324-1.307c.368-.826 1.311-1.437 2.384-1.922"/><path d="M47.055 43.058c-.036 4.046 1.922 7.702 5.088 10.279 3.915 3.188 7.126 9.641 7.314 16.682.207 7.818-.327 16.866-.655 21.469-4.185.592-7.126 1.993-7.126 3.624 0 2.168 5.208 4.674 11.634 4.674s11.635-2.506 11.635-4.674c0-1.631-2.937-3.032-7.131-3.624-.328-4.603-.857-13.651-.651-21.469.193-7.041 3.395-13.494 7.315-16.682 3.166-2.577 5.128-6.233 5.088-10.279-.068-7.705-7.347-13.906-16.256-13.906-8.913 0-16.192 6.201-16.255 13.906"/></g></g><circle fill="#FFF" cx="707" cy="245" r="63"/><g transform="translate(673 234)" fill="#06C"><path d="M20.07 12.693a202.71 202.71 0 0 1 4.079 6.192h.1a102.866 102.866 0 0 1-.218-6.771V0h2.736v22.764h-2.72l-8.812-12.693a168.166 168.166 0 0 1-4.08-6.193h-.1c.145 2.076.218 4.498.218 7.265v11.62H8.537V0h2.72l8.812 12.693zm15.14 7.57h11.517v2.502H32.474V0h13.632v2.502H35.21v7.35h9.686v2.5H35.21v7.912zm24.275 2.502h-2.737V2.502h-7.504V0H66.99v2.501h-7.505v20.264z"/><ellipse cx="2.063" cy="20.674" rx="2.063" ry="2.091"/></g></g></svg>